<svg width="35" height="35" viewBox="0 0 35 35" fill="none" xmlns="http://www.w3.org/2000/svg">
<path d="M17.5 0C12.7473 0 12.1513 0.0201452 10.2848 0.105311C8.4221 0.190338 7.14996 0.486126 6.03677 0.918762C4.88599 1.36599 3.91005 1.96437 2.93718 2.93725C1.9643 3.91012 1.36592 4.88606 0.918693 6.03684C0.486056 7.14996 0.190268 8.4221 0.105242 10.2848C0.0200758 12.1513 0 12.7473 0 17.5C0 22.2527 0.0200758 22.8487 0.105242 24.7152C0.190268 26.5779 0.486056 27.85 0.918693 28.9632C1.36592 30.1139 1.9643 31.0899 2.93718 32.0628C3.91005 33.0357 4.88599 33.6341 6.03677 34.0813C7.14996 34.5139 8.4221 34.8097 10.2848 34.8947C12.1513 34.9799 12.7473 35 17.5 35C22.2527 35 22.8487 34.9799 24.7152 34.8947C26.5779 34.8097 27.85 34.5139 28.9632 34.0813C30.1139 33.6341 31.0899 33.0357 32.0628 32.0628C33.0357 31.0899 33.6341 30.1139 34.0813 28.9632C34.5139 27.85 34.8097 26.5779 34.8947 24.7152C34.9799 22.8487 35 22.2527 35 17.5C35 12.7473 34.9799 12.1513 34.8947 10.2848C34.8097 8.4221 34.5139 7.14996 34.0813 6.03684C33.6341 4.88606 33.0357 3.91012 32.0628 2.93725C31.0899 1.96437 30.1139 1.36599 28.9632 0.918762C27.85 0.486126 26.5779 0.190338 24.7152 0.105311C22.8487 0.0201452 22.2527 0 17.5 0ZM17.5 3.15322C22.1727 3.15322 22.7262 3.171 24.5715 3.25519C26.2777 3.33307 27.2043 3.61816 27.821 3.85774C28.6379 4.17521 29.2208 4.55449 29.8332 5.16684C30.4456 5.77918 30.8248 6.36222 31.1423 7.179C31.3819 7.79565 31.667 8.72227 31.7448 10.4285C31.829 12.2738 31.8469 12.8273 31.8469 17.5C31.8469 22.1727 31.829 22.7262 31.7448 24.5715C31.667 26.2777 31.3819 27.2043 31.1423 27.821C30.8248 28.6379 30.4456 29.2208 29.8332 29.8332C29.2208 30.4456 28.6379 30.8248 27.821 31.1423C27.2043 31.3819 26.2777 31.667 24.5715 31.7448C22.7265 31.829 22.173 31.8469 17.5 31.8469C12.827 31.8469 12.2736 31.829 10.4285 31.7448C8.72227 31.667 7.79565 31.3819 7.179 31.1423C6.36215 30.8248 5.77918 30.4456 5.16677 29.8332C4.55442 29.2208 4.17514 28.6379 3.85774 27.821C3.61809 27.2043 3.333 26.2777 3.25512 24.5715C3.17093 22.7262 3.15315 22.1727 3.15315 17.5C3.15315 12.8273 3.17093 12.2738 3.25512 10.4285C3.333 8.72227 3.61809 7.79565 3.85774 7.179C4.17514 6.36222 4.55442 5.77918 5.16677 5.16684C5.77918 4.55449 6.36215 4.17521 7.179 3.85774C7.79565 3.61816 8.72227 3.33307 10.4285 3.25519C12.2738 3.171 12.8273 3.15322 17.5 3.15322Z" fill="#000F41"/>
<path d="M17.5002 23.3334C14.2785 23.3334 11.6668 20.7217 11.6668 17.5001C11.6668 14.2784 14.2785 11.6667 17.5002 11.6667C20.7218 11.6667 23.3335 14.2784 23.3335 17.5001C23.3335 20.7217 20.7218 23.3334 17.5002 23.3334ZM17.5002 8.51355C12.537 8.51355 8.51367 12.5369 8.51367 17.5001C8.51367 22.4632 12.537 26.4865 17.5002 26.4865C22.4633 26.4865 26.4866 22.4632 26.4866 17.5001C26.4866 12.5369 22.4633 8.51355 17.5002 8.51355Z" fill="#000F41"/>
<path d="M28.9417 8.15856C28.9417 9.31837 28.0015 10.2585 26.8417 10.2585C25.6819 10.2585 24.7417 9.31837 24.7417 8.15856C24.7417 6.99875 25.6819 6.05859 26.8417 6.05859C28.0015 6.05859 28.9417 6.99875 28.9417 8.15856Z" fill="#000F41"/>
</svg>
