<svg width="35" height="35" viewBox="0 0 35 35" fill="none" xmlns="http://www.w3.org/2000/svg">
<g clip-path="url(#clip0_65_808)">
<path d="M31.9185 8.70357C31.8541 8.61718 31.7732 8.54433 31.6806 8.48919C31.588 8.43405 31.4855 8.3977 31.3788 8.38221C31.2722 8.36672 31.1635 8.3724 31.0591 8.39892C30.9546 8.42544 30.8564 8.47228 30.7701 8.53677L17.5384 18.4133C17.4911 18.4488 17.4335 18.468 17.3743 18.468C17.3152 18.468 17.2576 18.4488 17.2103 18.4133L4.23841 8.49302C4.15277 8.42767 4.05509 8.37982 3.95096 8.35222C3.84683 8.32461 3.73828 8.31779 3.63151 8.33214C3.52474 8.34648 3.42184 8.38172 3.32869 8.43583C3.23554 8.48994 3.15396 8.56187 3.0886 8.64751C3.02325 8.73316 2.9754 8.83083 2.9478 8.93496C2.92019 9.03909 2.91337 9.14764 2.92772 9.25441C2.94206 9.36118 2.9773 9.46408 3.03141 9.55723C3.08552 9.65038 3.15745 9.73197 3.24309 9.79732L13.4423 17.5985L3.3552 25.2001C3.26831 25.2649 3.19502 25.3462 3.13954 25.4393C3.08406 25.5324 3.04747 25.6356 3.03186 25.7429C3.01624 25.8501 3.02191 25.9594 3.04854 26.0645C3.07516 26.1696 3.12223 26.2684 3.18704 26.3553C3.25185 26.4422 3.33315 26.5155 3.42629 26.571C3.51942 26.6265 3.62257 26.6631 3.72985 26.6787C3.83713 26.6943 3.94643 26.6886 4.05152 26.662C4.1566 26.6354 4.25542 26.5883 4.34231 26.5235L14.7958 18.6321L16.2122 19.7258C16.5425 19.9786 16.9461 20.117 17.362 20.1199C17.7779 20.1229 18.1835 19.9903 18.5173 19.7422L20.0048 18.6321L30.5814 26.5235C30.6677 26.5879 30.7659 26.6348 30.8704 26.6613C30.9749 26.6878 31.0835 26.6934 31.1901 26.6779C31.2968 26.6625 31.3993 26.6261 31.4919 26.571C31.5845 26.5159 31.6654 26.4431 31.7298 26.3567C31.7943 26.2703 31.8411 26.1721 31.8676 26.0677C31.8941 25.9632 31.8998 25.8546 31.8843 25.7479C31.8688 25.6413 31.8324 25.5387 31.7773 25.4461C31.7222 25.3535 31.6494 25.2727 31.563 25.2083L21.3747 17.5958L31.7517 9.8438C31.9238 9.71383 32.0378 9.52131 32.069 9.30791C32.1002 9.0945 32.0462 8.87739 31.9185 8.70357Z" fill="#000F41"/>
<path d="M30.8984 5.19531H4.10156C3.01376 5.19531 1.97051 5.62744 1.20132 6.39663C0.432128 7.16582 0 8.20907 0 9.29688L0 25.7031C0 26.7909 0.432128 27.8342 1.20132 28.6034C1.97051 29.3726 3.01376 29.8047 4.10156 29.8047H30.8984C31.9862 29.8047 33.0295 29.3726 33.7987 28.6034C34.5679 27.8342 35 26.7909 35 25.7031V9.29688C35 8.20907 34.5679 7.16582 33.7987 6.39663C33.0295 5.62744 31.9862 5.19531 30.8984 5.19531ZM33.3594 25.7031C33.3594 26.3558 33.1001 26.9818 32.6386 27.4433C32.1771 27.9048 31.5511 28.1641 30.8984 28.1641H4.10156C3.44888 28.1641 2.82293 27.9048 2.36142 27.4433C1.8999 26.9818 1.64062 26.3558 1.64062 25.7031V9.29688C1.64062 8.64419 1.8999 8.01824 2.36142 7.55673C2.82293 7.09521 3.44888 6.83594 4.10156 6.83594H30.8984C31.5511 6.83594 32.1771 7.09521 32.6386 7.55673C33.1001 8.01824 33.3594 8.64419 33.3594 9.29688V25.7031Z" fill="#000F41"/>
</g>
<defs>
<clipPath id="clip0_65_808">
<rect width="35" height="35" fill="white"/>
</clipPath>
</defs>
</svg>
