<svg width="35" height="35" viewBox="0 0 35 35" fill="none" xmlns="http://www.w3.org/2000/svg">
<path d="M32.0831 24.675V29.05C32.0847 29.4561 32.0015 29.8581 31.8388 30.2303C31.6761 30.6024 31.4375 30.9365 31.1382 31.211C30.8389 31.4856 30.4856 31.6946 30.1009 31.8248C29.7161 31.9549 29.3084 32.0032 28.9039 31.9666C24.4164 31.479 20.1058 29.9456 16.3185 27.4896C12.7949 25.2505 9.80754 22.2631 7.56851 18.7396C5.10389 14.9351 3.57011 10.6035 3.09143 6.09581C3.05498 5.69253 3.10291 5.28609 3.23216 4.90235C3.3614 4.51861 3.56913 4.16598 3.84213 3.86693C4.11512 3.56787 4.44739 3.32893 4.81779 3.16532C5.18818 3.00172 5.58859 2.91703 5.99351 2.91665H10.3685C11.0762 2.90968 11.7624 3.1603 12.299 3.6218C12.8356 4.08329 13.1861 4.72417 13.2852 5.42498C13.4698 6.82508 13.8123 8.19979 14.306 9.5229C14.5022 10.0449 14.5447 10.6121 14.4284 11.1575C14.3121 11.7029 14.0419 12.2035 13.6498 12.6L11.7977 14.4521C13.8737 18.1031 16.8967 21.126 20.5477 23.2021L22.3998 21.35C22.7963 20.9579 23.2969 20.6877 23.8422 20.5714C24.3876 20.4551 24.9549 20.4975 25.4768 20.6937C26.7999 21.1874 28.1747 21.5299 29.5748 21.7146C30.2832 21.8145 30.9301 22.1713 31.3926 22.7172C31.8551 23.263 32.1008 23.9598 32.0831 24.675Z" stroke="#000F41" stroke-width="2" stroke-linecap="round" stroke-linejoin="round"/>
</svg>
