<svg width="35" height="35" viewBox="0 0 35 35" fill="none" xmlns="http://www.w3.org/2000/svg">
<g clip-path="url(#clip0_134_581)">
<path fill-rule="evenodd" clip-rule="evenodd" d="M25.5182 20.9907C25.0828 20.7727 22.942 19.7195 22.5428 19.574C22.1437 19.4287 21.8535 19.3561 21.5631 19.7919C21.2729 20.2278 20.4384 21.2087 20.1843 21.4993C19.9304 21.7899 19.6764 21.8264 19.241 21.6082C18.8055 21.3904 17.4025 20.9306 15.7393 19.447C14.4449 18.2924 13.5709 16.8665 13.317 16.4306C13.0629 15.9946 13.2898 15.759 13.5078 15.5419C13.7038 15.3468 13.9433 15.0333 14.161 14.779C14.3788 14.5248 14.4513 14.3431 14.5964 14.0526C14.7416 13.7619 14.669 13.5077 14.5601 13.2898C14.4513 13.0719 13.5805 10.9285 13.2176 10.0565C12.8641 9.20757 12.5052 9.32255 12.2379 9.30909C11.9842 9.29651 11.6936 9.29384 11.4034 9.29384C11.1131 9.29384 10.6413 9.40281 10.2421 9.8386C9.84307 10.2745 8.71821 11.3281 8.71821 13.4712C8.71821 15.6146 10.2784 17.685 10.4962 17.9757C10.7139 18.2664 13.5666 22.6645 17.9348 24.5506C18.9736 24.9993 19.7847 25.2672 20.417 25.4678C21.4601 25.7993 22.4094 25.7525 23.1597 25.6403C23.9963 25.5155 25.7359 24.5871 26.0988 23.57C26.4616 22.5527 26.4616 21.6809 26.3527 21.4993C26.2439 21.3176 25.9537 21.2087 25.5182 20.9907ZM17.5732 31.8388H17.5673C14.9682 31.8378 12.419 31.1395 10.1951 29.8198L9.66615 29.5059L4.18414 30.944L5.64737 25.599L5.30305 25.051C3.85308 22.7448 3.08725 20.0794 3.08841 17.3425C3.09162 9.35646 9.58939 2.85924 17.579 2.85924C21.4478 2.86054 25.0845 4.36917 27.8193 7.10703C30.554 9.84482 32.0591 13.484 32.0576 17.3542C32.0543 25.3409 25.5566 31.8388 17.5732 31.8388ZM29.9006 5.02665C26.6104 1.73268 22.2349 -0.0821924 17.573 -0.0841064C7.96756 -0.0841064 0.149912 7.73306 0.146016 17.3414C0.144785 20.413 0.947188 23.4108 2.47229 26.0537L0 35.0841L9.23815 32.6608C11.7836 34.0492 14.6494 34.781 17.5661 34.7819H17.5733C27.1777 34.7819 34.996 26.9639 35 17.3554C35.0018 12.699 33.1907 8.32061 29.9006 5.02665Z" fill="#000F41"/>
</g>
<defs>
<clipPath id="clip0_134_581">
<rect width="35" height="35" fill="white"/>
</clipPath>
</defs>
</svg>
