<svg width="30" height="30" viewBox="0 0 30 30" fill="none" xmlns="http://www.w3.org/2000/svg">
<path d="M22.2563 15.1687C22.1689 15.082 22.0652 15.0132 21.9513 14.9665C21.8373 14.9197 21.7152 14.8959 21.5921 14.8964C21.4689 14.8968 21.347 14.9215 21.2333 14.969C21.1197 15.0166 21.0165 15.086 20.9297 15.1734C20.843 15.2608 20.7742 15.3645 20.7275 15.4785C20.6807 15.5924 20.6569 15.7145 20.6573 15.8377C20.6578 15.9609 20.6825 16.0828 20.73 16.1964C20.7776 16.31 20.847 16.4132 20.9344 16.5C21.7277 17.2849 22.3574 18.2193 22.7871 19.2492C23.2167 20.2791 23.4378 21.3841 23.4376 22.5C23.4376 23.6437 20.1469 25.3125 15.0001 25.3125C9.85318 25.3125 6.56256 23.6437 6.56256 22.5C6.56107 21.3914 6.77806 20.2934 7.20113 19.2687C7.62419 18.244 8.24504 17.3128 9.02818 16.5281C9.20279 16.3525 9.3008 16.1149 9.3008 15.8672C9.3008 15.6195 9.20279 15.3819 9.02818 15.2062C8.85253 15.0316 8.61492 14.9336 8.36725 14.9336C8.11957 14.9336 7.88196 15.0316 7.70631 15.2062C6.74547 16.1617 5.98387 17.2984 5.46567 18.5505C4.94748 19.8025 4.68299 21.145 4.68756 22.5C4.68756 25.5469 10.0032 27.1875 15.0001 27.1875C19.9969 27.1875 25.3126 25.5469 25.3126 22.5C25.3162 21.1362 25.0477 19.7853 24.5229 18.5265C23.9982 17.2677 23.2276 16.1262 22.2563 15.1687Z" fill="#000F41"/>
<path d="M15 15.9375C16.2979 15.9375 17.5667 15.5526 18.6459 14.8315C19.7251 14.1104 20.5663 13.0855 21.063 11.8864C21.5597 10.6872 21.6896 9.36772 21.4364 8.09472C21.1832 6.82172 20.5582 5.65239 19.6404 4.73461C18.7226 3.81683 17.5533 3.19181 16.2803 2.9386C15.0073 2.68538 13.6878 2.81534 12.4886 3.31204C11.2895 3.80874 10.2646 4.64987 9.54348 5.72907C8.82238 6.80827 8.4375 8.07706 8.4375 9.375C8.4375 11.1155 9.1289 12.7847 10.3596 14.0154C11.5903 15.2461 13.2595 15.9375 15 15.9375ZM15 4.6875C15.9271 4.6875 16.8334 4.96242 17.6042 5.47749C18.3751 5.99255 18.9759 6.72464 19.3307 7.58117C19.6855 8.4377 19.7783 9.3802 19.5974 10.2895C19.4166 11.1988 18.9701 12.034 18.3146 12.6896C17.659 13.3451 16.8238 13.7916 15.9145 13.9724C15.0052 14.1533 14.0627 14.0605 13.2062 13.7057C12.3496 13.3509 11.6176 12.7501 11.1025 11.9792C10.5874 11.2084 10.3125 10.3021 10.3125 9.375C10.3125 8.1318 10.8064 6.93951 11.6854 6.06044C12.5645 5.18136 13.7568 4.6875 15 4.6875Z" fill="#000F41"/>
</svg>
